# xmcd CD database file
#
# Track frame offsets:
#	150
#	8187
#	17845
#	35772
#	54020
#	83220
#	102165
#	118665
#	142730
#	163020
#	180712
#	198602
#	216775
#	238607
#	259165
#	288920
#	320097
#
# Disc length: 4566 seconds
#
# Revision: 4
# Processed by: cddbd v1.5.2PL0 Copyright (c) Steve Scherf et al.
# Submitted via: CDex 1.70beta2
#
DISCID=ec11d411
DTITLE=Newest Model - Beast Hits 〜 The Best Of Early Soul Flower
DYEAR=1998
DGENRE=Classical
TTITLE0=Hodokikan (Mass Communication Enfolds You Gently) [edit version]
TTITLE1=We're Gonna Have A Real Good Time Together
TTITLE2=Empty Notion
TTITLE3=Seisyun no Kageri (A Shade In Youth)
TTITLE4=Revenge Of Soul Survivor
TTITLE5=In The Holiday Mood
TTITLE6=Kotatsu Nai Funso (Struggling In The Kotatsu) [single mix]
TTITLE7=Zassyu Tenguku (Land Of A Million Crossbreed)
TTITLE8=Ubaguruma to Kan-Oke (Buggy and Coffin) [single mix]
TTITLE9=Syakushi Jyogi (The Formalists' Blue) [single mix]
TTITLE10=Hikari no Kaibutsu (Monster Of Light)
TTITLE11=Minna Shinjya (Everyone's Believer)
TTITLE12=Kuruma (Sealed Chamber Called Car)
TTITLE13=Gaiko Funosyo (Impotent Symptom)
TTITLE14=Get The Knowledge, Free Your Mind, Ride Your Cycle! (Part 1) [single mix]
TTITLE15=Soul Flower Clique Is The Universal Invader
TTITLE16=Mottomosona Futari (The Boiling Point In Plausible Two's Communication) [single mix]
EXTD=YEAR: 1998
EXTT0=
EXTT1=
EXTT2=
EXTT3=
EXTT4=
EXTT5=
EXTT6=
EXTT7=
EXTT8=
EXTT9=
EXTT10=
EXTT11=
EXTT12=
EXTT13=
EXTT14=
EXTT15=
EXTT16=
PLAYORDER=
